<svg width="112" height="112" viewBox="0 0 112 112" fill="none" xmlns="http://www.w3.org/2000/svg">
<path fill-rule="evenodd" clip-rule="evenodd" d="M27.4034 38.877C15.078 44.071 8.78894 49.574 6.96398 56.7895C6.59898 58.2775 6.14978 59.176 5.25134 60.299C-0.139283 67.0654 0.787214 74.4494 7.58165 78.9697C14.7411 83.7146 34.8717 83.9953 56.4341 79.6435C59.5225 79.0258 64.5201 78.1274 67.5242 77.6782C104.95 72.0349 117.444 55.498 106.101 44.0991C99.1941 37.1362 89.0025 34.1602 72.0164 34.0479C55.8445 33.9636 34.3663 40.6738 18.8963 49.9109C14.8534 52.3254 14.3761 51.3708 15.5553 50.1355C19.7105 45.7556 30.9129 40.0562 42.6207 36.6028C53.065 33.5144 57.8941 32.251 65.7273 32.1948C68.7876 32.1667 70.5564 30.0611 65.8396 29.8083C60.8421 29.5838 40.7957 33.2337 27.4034 38.877ZM102.676 59.906C97.7061 66.1389 86.251 70.7714 67.6927 74.0002C5.67248 84.7814 10.5577 61.4501 10.5577 61.4501C10.6139 61.4221 30.1268 42.1338 68.535 37.4451C87.4302 35.1147 117.556 41.2354 102.676 59.906ZM28.6107 78.8293C35.012 79.6997 27.4876 79.8681 17.9979 79.082C0.309922 77.622 5.41978 67.4304 7.04822 65.7458C12.3265 73.3545 19.6544 77.622 28.6107 78.8293Z" fill="black"/>
</svg>
