<svg width="496" height="177" viewBox="0 0 496 177" fill="none" xmlns="http://www.w3.org/2000/svg">
<path fill-rule="evenodd" clip-rule="evenodd" d="M298.668 1.09558C262.668 4.01866 228.283 16.8648 210.052 34.2494L205.514 38.5571L196.898 38.4033C159.052 37.4033 121.052 47.711 53.6679 77.711C34.0525 86.4802 19.8986 87.1725 10.514 80.0956C7.66785 77.9417 4.05251 77.6341 4.05251 79.5571C4.05251 83.4033 16.6678 92.4033 29.7448 97.9417C40.2832 102.403 40.4372 102.019 26.7449 105.557C15.8218 108.403 14.0525 108.634 2.51405 107.326C-2.79364 106.711 3.82174 114.019 10.9756 116.634C41.4372 127.788 66.514 125.249 140.129 103.173C153.437 99.1725 164.514 95.9417 164.821 95.9417C164.898 95.9417 150.898 161.557 207.514 174.096C276.745 189.403 333.668 124.326 289.898 80.0956C286.437 76.634 282.052 72.0956 280.129 70.0956C278.206 68.0187 273.283 63.9417 269.206 61.0956C260.206 54.7879 260.283 55.4033 268.514 52.1725C304.668 37.9417 329.437 39.4033 366.36 57.8648C433.206 91.3264 468.898 89.1725 490.129 50.4033C497.745 36.5571 497.514 21.4802 489.898 33.5571C486.052 39.634 475.052 46.4033 464.591 49.0956C457.591 50.9417 457.36 50.9417 459.745 48.711C466.975 41.9417 464.206 19.0956 456.514 21.711C455.668 22.0187 453.591 24.2494 451.898 26.711C442.898 40.0187 423.975 40.0187 397.283 26.711C381.206 18.711 325.898 -1.13519 298.668 1.09558ZM395.591 31.711C419.591 42.9417 430.206 45.0956 444.745 41.4033C454.591 38.9417 453.36 40.2494 440.514 53.2494C439.514 54.2494 439.668 55.8648 440.745 56.711C444.975 60.0956 463.052 58.1725 475.898 53.0187C484.052 49.711 484.283 49.7879 481.129 54.0956C476.052 61.0956 469.052 66.8648 457.437 71.0187C434.206 79.4033 416.36 75.4033 375.591 55.9417C336.437 37.1725 332.514 36.4802 318.052 36.0187C297.514 35.4033 272.668 40.3264 259.052 49.3264L255.206 51.9417C255.129 51.9417 218.283 40.4033 218.206 40.3264C218.052 40.1725 221.283 37.711 225.437 35.0187C250.975 18.1725 275.206 11.8648 299.898 8.71097C328.206 5.01867 380.668 24.711 395.591 31.711ZM211.437 48.3264C238.437 50.9417 267.975 62.8648 275.283 74.0187C277.052 76.711 276.898 76.7879 269.437 75.1725C256.975 72.4033 245.591 71.7879 227.745 72.711C199.283 74.2494 184.745 77.4802 125.129 95.7879C82.2061 109.019 61.3602 113.634 44.8218 113.634C30.6679 113.634 29.2832 113.173 36.5909 110.865C44.7447 108.249 47.3601 106.788 50.2832 105.173C55.6678 102.173 50.6678 97.8648 42.7447 95.711C36.437 93.9417 30.8986 91.4802 33.2063 91.4033C40.0525 91.1725 52.7449 87.3264 79.0522 77.5571C145.129 52.8648 179.745 45.2494 211.437 48.3264ZM255.36 85.9417C259.052 97.8648 242.898 124.019 223.975 136.634C213.975 143.326 198.283 144.711 191.437 139.403C186.668 135.711 201.898 108.942 217.975 92.7879C228.975 81.711 227.898 82.1725 242.437 82.3263L254.283 82.4802L255.36 85.9417ZM271.514 84.0187C281.745 85.8648 284.052 86.634 287.745 90.0187C303.36 104.326 292.052 140.634 265.668 160.942C243.591 177.865 199.975 174.634 190.821 157.019C189.437 154.326 187.821 144.403 188.821 144.403C188.975 144.403 191.206 145.173 193.745 146.019C226.514 157.326 275.591 113.711 262.975 84.2494C262.206 82.5571 263.129 82.4802 271.514 84.0187ZM211.36 86.0956C190.975 100.48 178.898 129.326 181.283 150.403C181.437 151.942 182.36 152.865 182.206 152.865C180.745 152.865 176.206 139.096 174.821 130.711C171.129 107.788 178.052 98.5571 181.975 92.0956C182.821 90.711 217.668 81.5571 211.36 86.0956Z" fill="black"/>
</svg>
