<svg width="109" height="25" viewBox="0 0 109 25" fill="none" xmlns="http://www.w3.org/2000/svg">
<path fill-rule="evenodd" clip-rule="evenodd" d="M71.3942 1.12044C38.4691 4.09115 27.0814 5.08137 19.2215 5.63837C5.54392 6.62861 3.13023 7.12374 3.87292 9.0423C5.23449 12.57 17.9218 12.5081 63.658 8.73285C76.0359 7.68073 87.4855 6.87617 89.0327 6.87617C96.5832 6.81427 96.6451 -1.16946 71.3942 1.12044ZM69.5375 13.0651C65.7623 13.3746 13.899 18.2638 10.1856 18.6351C-0.21178 19.5635 -1.63525 20.3062 2.51134 22.9674C8.26705 26.6189 59.6352 19.6254 92.4985 18.697C107.785 18.2638 109.394 17.9544 108.528 15.7882C107.352 12.4462 91.3226 11.3322 69.5375 13.0651Z" fill="#1E1928"/>
</svg>
